<?xml version="1.0" standalone="no"?>
<!DOCTYPE svg PUBLIC "-//W3C//DTD SVG 1.1//EN" "http://www.w3.org/Graphics/SVG/1.1/DTD/svg11.dtd">
<svg width="34px" height="34px" fill="#E74C3C" viewBox="0 0 1024 1024" version="1.1" xmlns="http://www.w3.org/2000/svg"><path d="M512 960c-42.8 0-85.4-6.1-126.4-18.1-0.1 0-0.3-0.1-0.4-0.1-0.6-0.2-1.2-0.3-1.8-0.5-116.7-34-213.7-114.3-269.8-219.7 1 0.6 2.1 1.1 3.2 1.7C82 658.2 63.9 585.7 64 512 64 264.6 264.6 64 512 64s448 200.6 448 448-200.6 448-448 448z m0-843.3c-218.3 0-395.3 177-395.3 395.3-0.1 82.7 25.8 163.4 74.2 230.6 5.7 0.4 11.5 0.6 17.3 0.6 71.2 0 130-31.3 138.7-71.7h25c8.8 40.4 67.5 71.7 138.7 71.7s130-31.3 138.7-71.7h25c8.8 40.4 67.5 71.7 138.7 71.7 6.8 0 13.5-0.3 20.1-0.9 48.3-67.1 74.2-147.7 74-230.4 0.2-218.2-176.8-395.2-395.1-395.2z m128.9 459.2H377.3c-64 2.8-118.3-45.4-121.2-107.7-2.9-62.3 46.6-115.1 110.7-118-0.2-75.7 60.1-138.6 137.8-143.6 77.7-5 146 49.5 156.2 124.6 65.5 9.8 112.1 67.1 106.9 131.3-5.3 64.2-60.5 113.7-126.8 113.4z m-248.2-41h248.2c30.1 0 58-15.6 73-41a80.06 80.06 0 0 0 0-82.1c-15.1-25.4-42.9-41-73-41-5.6 0-11-2.2-14.9-6-3.9-3.8-6.2-9-6.2-14.5 0-56.7-47.2-102.6-105.4-102.6S409 293.6 409 350.2v4.3c49.8 13.8 84.3 58.1 84.3 108.5 0 7.3-4 14.1-10.5 17.8-6.6 3.7-14.5 3.7-21.1 0a20.32 20.32 0 0 1-10.5-17.8c0-39.6-32.9-71.7-73.6-71.8-40.8 0-73.8 32.2-73.8 71.8 0 39.7 33 71.8 73.8 71.8h8.2c2.3-0.3 4.6-0.3 6.9 0.1z" /></svg>